<?xml version="1.0" encoding="UTF-8"?>
<!DOCTYPE svg PUBLIC "-//W3C//DTD SVG 1.1//EN" "http://www.w3.org/Graphics/SVG/1.1/DTD/svg11.dtd">
<svg xmlns="http://www.w3.org/2000/svg" version="1.1" width="512px" height="512px" style="shape-rendering:geometricPrecision; text-rendering:geometricPrecision; image-rendering:optimizeQuality; fill-rule:evenodd; clip-rule:evenodd" xmlns:xlink="http://www.w3.org/1999/xlink">
<g><path style="opacity:1" fill="#000000" d="M -0.5,-0.5 C 170.167,-0.5 340.833,-0.5 511.5,-0.5C 511.5,170.167 511.5,340.833 511.5,511.5C 340.833,511.5 170.167,511.5 -0.5,511.5C -0.5,340.833 -0.5,170.167 -0.5,-0.5 Z"/></g>
<g><path style="opacity:1" fill="#fefefe" d="M 120.5,76.5 C 129.977,77.3819 138.644,80.5485 146.5,86C 165.171,101.842 180.671,120.342 193,141.5C 213.016,175.525 232.016,210.192 250,245.5C 264.204,206.755 282.871,170.422 306,136.5C 317.484,121.684 330.317,108.184 344.5,96C 357.688,86.3772 372.354,80.0438 388.5,77C 391.5,76.3333 394.5,76.3333 397.5,77C 420.717,92.5901 433.217,114.423 435,142.5C 435.333,204.5 435.667,266.5 436,328.5C 436.777,335.938 438.11,343.272 440,350.5C 441.755,357.79 446.255,360.624 453.5,359C 457.761,356.953 461.928,354.787 466,352.5C 470.189,357.026 474.023,361.859 477.5,367C 450.942,389.193 424.109,411.026 397,432.5C 382.404,423.231 372.238,410.398 366.5,394C 363.469,385.376 361.302,376.542 360,367.5C 358.535,294.185 358.035,220.852 358.5,147.5C 352.096,148.459 347.263,151.793 344,157.5C 332.854,178.132 324.188,199.799 318,222.5C 309.118,253.858 300.618,285.358 292.5,317C 296.931,324.763 303.264,330.43 311.5,334C 315.902,334.968 319.902,334.135 323.5,331.5C 327.09,335.364 329.59,339.697 331,344.5C 308.316,365.351 285.483,386.018 262.5,406.5C 258.228,407.477 254.228,406.643 250.5,404C 246.367,400.869 242.534,397.369 239,393.5C 231.586,383.677 224.919,373.344 219,362.5C 198.394,320.288 178.061,277.955 158,235.5C 157.291,268.551 158.291,301.551 161,334.5C 161.274,343.113 163.774,350.946 168.5,358C 170.199,358.958 172.033,359.458 174,359.5C 179.685,357.991 185.019,355.658 190,352.5C 194.186,357.029 198.019,361.862 201.5,367C 174.942,389.193 148.109,411.026 121,432.5C 95.3538,413.889 81.6872,388.556 80,356.5C 79.9815,294.464 79.3149,232.464 78,170.5C 75.9681,160.115 69.8014,155.615 59.5,157C 53.1918,158.904 47.3585,161.738 42,165.5C 39.1667,160.5 36.3333,155.5 33.5,150.5C 62.5194,125.811 91.5194,101.144 120.5,76.5 Z"/></g>
</svg>
